<svg width="400" height="400" viewBox="0 0 400 400" fill="none" xmlns="http://www.w3.org/2000/svg">
  <rect width="400" height="400" fill="#F3F4F6"/>
  <path d="M200 150C211.046 150 220 141.046 220 130C220 118.954 211.046 110 200 110C188.954 110 180 118.954 180 130C180 141.046 188.954 150 200 150Z" fill="#9CA3AF"/>
  <path d="M270 190V170H250V150H230V170H170V150H150V170H130V190H150V210H130V230H150V250H170V270H230V250H250V230H270V210H250V190H270ZM170 230H150V210H170V230ZM170 190H150V170H170V190ZM230 230H170V170H230V230ZM250 230H230V210H250V230ZM250 190H230V170H250V190Z" fill="#9CA3AF"/>
</svg>
